<?xml version="1.0" standalone="no"?>
<!DOCTYPE svg PUBLIC "-//W3C//DTD SVG 20010904//EN"
 "http://www.w3.org/TR/2001/REC-SVG-20010904/DTD/svg10.dtd">
<svg version="1.0" xmlns="http://www.w3.org/2000/svg"
 width="126.000000pt" height="132.000000pt" viewBox="0 0 126.000000 132.000000"
 preserveAspectRatio="xMidYMid meet">

<g transform="translate(0.000000,132.000000) scale(0.100000,-0.100000)"
fill="#000000" stroke="none">
<path d="M0 788 l0 -533 334 334 c184 184 333 338 330 343 -3 4 -101 8 -217 8
l-212 0 3 65 4 65 376 0 377 0 -338 -338 c-186 -186 -335 -341 -331 -345 4 -4
169 -7 366 -7 l359 0 -7 23 c-4 12 -37 82 -74 156 l-67 134 -124 -121 -124
-122 -45 45 -45 45 190 190 c104 105 193 190 197 190 5 0 8 -4 8 -9 0 -9 159
-343 254 -536 l45 -90 0 518 1 517 -630 0 -630 0 0 -532z"/>
<path d="M0 125 l0 -125 630 0 630 0 0 125 0 125 -630 0 -630 0 0 -125z"/>
</g>
</svg>
